# xmcd
#
# Track frame offsets:
#	180
#	15877
#	24459
#	38762
#	50534
#	63691
#	77188
#	91269
#	104796
#	119733
#	133857
#	146957
#	161021
#	180014
#	192064
#	207290
#	220480
#	234722
#
# Disc length: 3320
#
# Revision: 1
# Processed by: cddbd v1.5.1PL0 Copyright (c) Steve Scherf et al.
# Submitted via: CDex 1.51
# Normalized: r0:DSETVAR1,TDELIM( - )
#
DISCID=060cf612
DTITLE=Various Artist - Western - Cowboy Ballads and Songs - Frémeaux and Associés 1925-1939 - Disc 1
DYEAR=1995
DGENRE=Country
TTITLE0=Mac Mcclintock - The Old Chisholm Trail
TTITLE1=John G. Prude - Streets Of Laredo
TTITLE2=Jules Verne Allen - The Cowboy's Lament
TTITLE3=Jules Verne Allen - The Gal I Left Behind Me
TTITLE4=Edward L. Crain - Bandit Cole Young
TTITLE5=J.D. Farley - Bill Was A Texas Lad
TTITLE6=Carl T. Sprague - Following The Cow Trail
TTITLE7=Jules Verne Allen - Little Joe The Wrangler
TTITLE8=Jules Verne Allen - Jack O'Diamonds (Rye Whiskey)
TTITLE9=Marc Williams - Sioux Indians
TTITLE10=Carl T. Sprague - When The Work's All Done This Fall
TTITLE11=Powder River Jack Lee - Tying A Knot In The Devil's Tail
TTITLE12=The Arizona Wranglers - Strawberry Roan
TTITLE13=John I. White - Whoopee-Ti-Yi-Yo (Get Along Little Doggies)
TTITLE14=Mac Mcclintock - Sam Bass
TTITLE15=Tex Owens - Cattle Call
TTITLE16=Montant Slim (Wilf Carter) - Little Old Dog Shack
TTITLE17=Gene Autry - The Life Of Jimmie Rodgers
EXTD=YEAR: 1995
EXTT0=
EXTT1=
EXTT2=
EXTT3=
EXTT4=
EXTT5=
EXTT6=
EXTT7=
EXTT8=
EXTT9=
EXTT10=
EXTT11=
EXTT12=
EXTT13=
EXTT14=
EXTT15=
EXTT16=
EXTT17=
PLAYORDER=
